<svg width="18" height="20" viewBox="0 0 18 20" fill="none" xmlns="http://www.w3.org/2000/svg">
    <path d="M8.99821 12.013C6.95441 12.013 5.28485 10.4044 5.28485 8.41467C5.28485 6.42494 6.95441 4.82568 8.99821 4.82568C11.042 4.82568 12.7115 6.43424 12.7115 8.42397C12.7115 10.4137 11.042 12.013 8.99821 12.013ZM8.99821 6.22038C7.75084 6.22038 6.72412 7.20597 6.72412 8.42397C6.72412 9.64201 7.74125 10.6276 8.99821 10.6276C10.2552 10.6276 11.2723 9.64201 11.2723 8.42397C11.2723 7.20597 10.2456 6.22038 8.99821 6.22038Z" fill="#292D32"/>
    <path d="M8.99704 20C7.57696 20 6.14727 19.4793 5.03423 18.4472C2.20366 15.8066 -0.924358 11.5946 0.255846 6.58298C1.32091 2.03626 5.41804 0 8.99704 0H9.00664C12.5856 0 16.6828 2.03626 17.7478 6.59228C18.9184 11.6039 15.7904 15.8066 12.9598 18.4472C11.8468 19.4793 10.4171 20 8.99704 20ZM8.99704 1.3947C6.20484 1.3947 2.61625 2.83589 1.66633 6.88982C0.630057 11.2692 3.47022 15.0442 6.04172 17.4338C7.7017 18.9865 10.302 18.9865 11.9619 17.4338C14.5238 15.0442 17.364 11.2692 16.3469 6.88982C15.3874 2.83589 11.7892 1.3947 8.99704 1.3947Z" fill="#292D32"/>
</svg>
